<?xml version="1.0" encoding="UTF-8" standalone="no"?>
<!-- Created with Inkscape (http://www.inkscape.org/) -->

<svg
   xmlns:dc="http://purl.org/dc/elements/1.1/"
   xmlns:cc="http://creativecommons.org/ns#"
   xmlns:rdf="http://www.w3.org/1999/02/22-rdf-syntax-ns#"
   xmlns:svg="http://www.w3.org/2000/svg"
   xmlns="http://www.w3.org/2000/svg"
   xmlns:sodipodi="http://sodipodi.sourceforge.net/DTD/sodipodi-0.dtd"
   xmlns:inkscape="http://www.inkscape.org/namespaces/inkscape"
   width="90mm"
   height="30mm"
   viewBox="0 0 90 30"
   version="1.1"
   id="svg9159"
   inkscape:version="0.92.4 (5da689c313, 2019-01-14)"
   sodipodi:docname="CARTAGO_LOGO.svg">
  <defs
     id="defs9153" />
  <sodipodi:namedview
     id="base"
     pagecolor="#ffffff"
     bordercolor="#666666"
     borderopacity="1.0"
     inkscape:pageopacity="0.0"
     inkscape:pageshadow="2"
     inkscape:zoom="2.1241434"
     inkscape:cx="127.656"
     inkscape:cy="103.58983"
     inkscape:document-units="mm"
     inkscape:current-layer="layer1"
     showgrid="false"
     inkscape:window-width="1920"
     inkscape:window-height="1001"
     inkscape:window-x="-9"
     inkscape:window-y="-9"
     inkscape:window-maximized="1" />
  <metadata
     id="metadata9156">
    <rdf:RDF>
      <cc:Work
         rdf:about="">
        <dc:format>image/svg+xml</dc:format>
        <dc:type
           rdf:resource="http://purl.org/dc/dcmitype/StillImage" />
        <dc:title></dc:title>
      </cc:Work>
    </rdf:RDF>
  </metadata>
  <g
     inkscape:label="Capa 1"
     inkscape:groupmode="layer"
     id="layer1"
     transform="translate(0,-267)">
    <path
       style="opacity:0.606;fill:#4fbc05;fill-opacity:1;stroke:none;stroke-width:0.12046734;stroke-miterlimit:4;stroke-dasharray:none;stroke-opacity:1"
       d="m 13.855912,272.36559 -3.659759,3.73424 -0.4246801,-0.74757 -1.7639618,0.54074 0.4432798,0.78029 -5.3891518,1.72199 a 1.452339,1.9831955 89.760814 0 1 1.577698,0.82448 l 0.02267,0.0367 a 1.452339,1.9831955 89.760814 0 1 -0.134841,1.34433 l 5.2092078,-1.66447 0.5896731,1.038 1.763995,-0.54078 -0.342532,-0.60294 4.27269,2.19812 3.270347,-3.20931 -1.471242,-0.75689 -1.94454,1.89789 -3.932331,-2.02301 2.394998,-2.44375 2.784556,1.43254 1.225137,-1.25007 z m -10.2490569,6.52968 a 1.190715,1.6378889 89.098472 0 0 -2.270676,0.31771 1.190715,1.6378889 89.098472 0 0 0.397924,1.65006 1.190715,1.6378889 89.098472 0 0 2.276272,-0.2947 l 0.026,-0.0274 a 1.190715,1.6378889 89.098472 0 0 -0.429462,-1.64564 z m -0.463464,0.4943 a 0.59533606,0.8188899 89.089823 0 1 0.214714,0.82275 l -0.01308,0.0137 a 0.59533606,0.8188899 89.089823 0 1 -1.13802,0.14738 0.59533606,0.8188899 89.089823 0 1 -0.198911,-0.82501 0.59533606,0.8188899 89.089823 0 1 1.135297,-0.15885 z m 1.369453,1.25953 a 1.4395106,2.0008693 89.05711 0 1 -1.648713,0.77279 l -0.05551,0.002 a 1.4395106,2.0008693 89.05711 0 1 -1.669268,-0.57141 l 0.182167,4.43534 -1.25521899,0.0166 0.01502,1.38671 6.09513199,-0.0806 -0.01506,-1.38666 -1.459807,0.0193 z"
       id="path1706"
       inkscape:connector-curvature="0" />
    <rect
       style="opacity:1;fill:#4fbc05;fill-opacity:1;stroke:#ffffff;stroke-width:0;stroke-miterlimit:4;stroke-dasharray:none;stroke-opacity:1"
       id="rect8966"
       width="90.415688"
       height="10.050733"
       x="0.081321113"
       y="286.69113" />
    <text
       xml:space="preserve"
       style="font-style:normal;font-weight:normal;font-size:10.58333302px;line-height:1.25;font-family:sans-serif;letter-spacing:0px;word-spacing:0px;fill:#000000;fill-opacity:1;stroke:none;stroke-width:0.26458332"
       x="26.780403"
       y="274.70377"
       id="text4358"><tspan
         sodipodi:role="line"
         id="tspan4356"
         x="26.780403"
         y="284.35925"
         style="stroke-width:0.26458332" /></text>
    <text
       xml:space="preserve"
       style="font-style:normal;font-weight:normal;font-size:10.58333302px;line-height:1.25;font-family:sans-serif;letter-spacing:0px;word-spacing:0px;fill:#000000;fill-opacity:1;stroke:none;stroke-width:0.26458332"
       x="28.648802"
       y="277.94232"
       id="text4362"><tspan
         sodipodi:role="line"
         id="tspan4360"
         x="28.648802"
         y="287.59781"
         style="stroke-width:0.26458332" /></text>
    <text
       xml:space="preserve"
       style="font-style:normal;font-weight:normal;font-size:12.22189999px;line-height:1.25;font-family:sans-serif;letter-spacing:0px;word-spacing:0px;fill:#4fbc05;fill-opacity:1;stroke:none;stroke-width:0.30554751"
       x="17.029484"
       y="345.05316"
       id="text4366"
       transform="scale(1.2268347,0.81510575)"><tspan
         sodipodi:role="line"
         id="tspan4364"
         x="17.029484"
         y="345.05316"
         style="font-style:normal;font-variant:normal;font-weight:normal;font-stretch:normal;font-family:'Bauhaus 93';-inkscape-font-specification:'Bauhaus 93, ';fill:#4fbc05;fill-opacity:1;stroke-width:0.30554751">CARTAGO</tspan></text>
  </g>
</svg>
